<?xml version="1.0" encoding="utf-8" standalone="no"?>
<!DOCTYPE svg PUBLIC "-//W3C//DTD SVG 1.1//EN"
  "http://www.w3.org/Graphics/SVG/1.1/DTD/svg11.dtd">
<!-- Created with matplotlib (http://matplotlib.org/) -->
<svg height="288pt" version="1.1" viewBox="0 0 432 288" width="432pt" xmlns="http://www.w3.org/2000/svg" xmlns:xlink="http://www.w3.org/1999/xlink">
 <defs>
  <style type="text/css">
*{stroke-linecap:butt;stroke-linejoin:round;}
  </style>
 </defs>
 <g id="figure_1">
  <g id="patch_1">
   <path d="M 0 288 
L 432 288 
L 432 0 
L 0 0 
z
" style="fill:#ffffff;"/>
  </g>
  <g id="axes_1">
   <g id="patch_2">
    <path d="M 56.925 246.2 
L 417.7 246.2 
L 417.7 26.8 
L 56.925 26.8 
z
" style="fill:#ffffff;"/>
   </g>
   <g id="PathCollection_1">
    <defs>
     <path d="M 0 3 
C 0.795609 3 1.55874 2.683901 2.12132 2.12132 
C 2.683901 1.55874 3 0.795609 3 0 
C 3 -0.795609 2.683901 -1.55874 2.12132 -2.12132 
C 1.55874 -2.683901 0.795609 -3 0 -3 
C -0.795609 -3 -1.55874 -2.683901 -2.12132 -2.12132 
C -2.683901 -1.55874 -3 -0.795609 -3 0 
C -3 0.795609 -2.683901 1.55874 -2.12132 2.12132 
C -1.55874 2.683901 -0.795609 3 0 3 
z
" id="mffa81e5b03" style="stroke:#1f77b4;"/>
    </defs>
    <g clip-path="url(#p0c1456e6aa)">
     <use style="fill:#1f77b4;stroke:#1f77b4;" x="73.353544" xlink:href="#mffa81e5b03" y="71.859917"/>
     <use style="fill:#1f77b4;stroke:#1f77b4;" x="76.665846" xlink:href="#mffa81e5b03" y="157.337922"/>
     <use style="fill:#1f77b4;stroke:#1f77b4;" x="79.978148" xlink:href="#mffa81e5b03" y="87.382042"/>
     <use style="fill:#1f77b4;stroke:#1f77b4;" x="83.29045" xlink:href="#mffa81e5b03" y="39.965139"/>
     <use style="fill:#1f77b4;stroke:#1f77b4;" x="86.602752" xlink:href="#mffa81e5b03" y="184.980062"/>
     <use style="fill:#1f77b4;stroke:#1f77b4;" x="89.915054" xlink:href="#mffa81e5b03" y="209.220094"/>
     <use style="fill:#1f77b4;stroke:#1f77b4;" x="93.227357" xlink:href="#mffa81e5b03" y="120.339979"/>
     <use style="fill:#1f77b4;stroke:#1f77b4;" x="96.539659" xlink:href="#mffa81e5b03" y="56.12516"/>
     <use style="fill:#1f77b4;stroke:#1f77b4;" x="99.851961" xlink:href="#mffa81e5b03" y="55.487264"/>
     <use style="fill:#1f77b4;stroke:#1f77b4;" x="103.164263" xlink:href="#mffa81e5b03" y="65.693593"/>
     <use style="fill:#1f77b4;stroke:#1f77b4;" x="106.476565" xlink:href="#mffa81e5b03" y="225.167483"/>
     <use style="fill:#1f77b4;stroke:#1f77b4;" x="109.788867" xlink:href="#mffa81e5b03" y="79.0894"/>
     <use style="fill:#1f77b4;stroke:#1f77b4;" x="113.10117" xlink:href="#mffa81e5b03" y="149.470543"/>
     <use style="fill:#1f77b4;stroke:#1f77b4;" x="116.413472" xlink:href="#mffa81e5b03" y="196.249551"/>
     <use style="fill:#1f77b4;stroke:#1f77b4;" x="119.725774" xlink:href="#mffa81e5b03" y="56.550423"/>
     <use style="fill:#1f77b4;stroke:#1f77b4;" x="123.038076" xlink:href="#mffa81e5b03" y="169.883201"/>
     <use style="fill:#1f77b4;stroke:#1f77b4;" x="126.350378" xlink:href="#mffa81e5b03" y="94.398893"/>
     <use style="fill:#1f77b4;stroke:#1f77b4;" x="129.66268" xlink:href="#mffa81e5b03" y="101.841008"/>
     <use style="fill:#1f77b4;stroke:#1f77b4;" x="132.974982" xlink:href="#mffa81e5b03" y="55.274632"/>
     <use style="fill:#1f77b4;stroke:#1f77b4;" x="136.287285" xlink:href="#mffa81e5b03" y="156.487394"/>
     <use style="fill:#1f77b4;stroke:#1f77b4;" x="139.599587" xlink:href="#mffa81e5b03" y="67.394648"/>
     <use style="fill:#1f77b4;stroke:#1f77b4;" x="142.911889" xlink:href="#mffa81e5b03" y="84.192564"/>
     <use style="fill:#1f77b4;stroke:#1f77b4;" x="146.224191" xlink:href="#mffa81e5b03" y="213.047467"/>
     <use style="fill:#1f77b4;stroke:#1f77b4;" x="149.536493" xlink:href="#mffa81e5b03" y="63.779906"/>
     <use style="fill:#1f77b4;stroke:#1f77b4;" x="152.848795" xlink:href="#mffa81e5b03" y="95.674684"/>
     <use style="fill:#1f77b4;stroke:#1f77b4;" x="156.161097" xlink:href="#mffa81e5b03" y="155.211603"/>
     <use style="fill:#1f77b4;stroke:#1f77b4;" x="159.4734" xlink:href="#mffa81e5b03" y="144.367379"/>
     <use style="fill:#1f77b4;stroke:#1f77b4;" x="162.785702" xlink:href="#mffa81e5b03" y="57.826214"/>
     <use style="fill:#1f77b4;stroke:#1f77b4;" x="166.098004" xlink:href="#mffa81e5b03" y="182.003217"/>
     <use style="fill:#1f77b4;stroke:#1f77b4;" x="169.410306" xlink:href="#mffa81e5b03" y="161.165295"/>
     <use style="fill:#1f77b4;stroke:#1f77b4;" x="172.722608" xlink:href="#mffa81e5b03" y="37.83882"/>
     <use style="fill:#1f77b4;stroke:#1f77b4;" x="176.03491" xlink:href="#mffa81e5b03" y="227.081169"/>
     <use style="fill:#1f77b4;stroke:#1f77b4;" x="179.347212" xlink:href="#mffa81e5b03" y="83.554669"/>
     <use style="fill:#1f77b4;stroke:#1f77b4;" x="182.659515" xlink:href="#mffa81e5b03" y="52.935682"/>
     <use style="fill:#1f77b4;stroke:#1f77b4;" x="185.971817" xlink:href="#mffa81e5b03" y="213.260099"/>
     <use style="fill:#1f77b4;stroke:#1f77b4;" x="189.284119" xlink:href="#mffa81e5b03" y="82.704141"/>
     <use style="fill:#1f77b4;stroke:#1f77b4;" x="192.596421" xlink:href="#mffa81e5b03" y="64.843066"/>
     <use style="fill:#1f77b4;stroke:#1f77b4;" x="195.908723" xlink:href="#mffa81e5b03" y="115.662078"/>
     <use style="fill:#1f77b4;stroke:#1f77b4;" x="199.221025" xlink:href="#mffa81e5b03" y="128.207358"/>
     <use style="fill:#1f77b4;stroke:#1f77b4;" x="202.533327" xlink:href="#mffa81e5b03" y="92.697838"/>
     <use style="fill:#1f77b4;stroke:#1f77b4;" x="205.84563" xlink:href="#mffa81e5b03" y="119.27682"/>
     <use style="fill:#1f77b4;stroke:#1f77b4;" x="209.157932" xlink:href="#mffa81e5b03" y="120.765243"/>
     <use style="fill:#1f77b4;stroke:#1f77b4;" x="212.470234" xlink:href="#mffa81e5b03" y="195.611655"/>
     <use style="fill:#1f77b4;stroke:#1f77b4;" x="215.782536" xlink:href="#mffa81e5b03" y="36.775661"/>
     <use style="fill:#1f77b4;stroke:#1f77b4;" x="219.094838" xlink:href="#mffa81e5b03" y="86.106251"/>
     <use style="fill:#1f77b4;stroke:#1f77b4;" x="222.40714" xlink:href="#mffa81e5b03" y="52.297786"/>
     <use style="fill:#1f77b4;stroke:#1f77b4;" x="225.719442" xlink:href="#mffa81e5b03" y="215.173786"/>
     <use style="fill:#1f77b4;stroke:#1f77b4;" x="229.031745" xlink:href="#mffa81e5b03" y="197.737974"/>
     <use style="fill:#1f77b4;stroke:#1f77b4;" x="232.344047" xlink:href="#mffa81e5b03" y="176.474788"/>
     <use style="fill:#1f77b4;stroke:#1f77b4;" x="235.656349" xlink:href="#mffa81e5b03" y="224.316955"/>
     <use style="fill:#1f77b4;stroke:#1f77b4;" x="238.968651" xlink:href="#mffa81e5b03" y="183.916903"/>
     <use style="fill:#1f77b4;stroke:#1f77b4;" x="242.280953" xlink:href="#mffa81e5b03" y="203.479034"/>
     <use style="fill:#1f77b4;stroke:#1f77b4;" x="245.593255" xlink:href="#mffa81e5b03" y="123.529457"/>
     <use style="fill:#1f77b4;stroke:#1f77b4;" x="248.905558" xlink:href="#mffa81e5b03" y="96.31258"/>
     <use style="fill:#1f77b4;stroke:#1f77b4;" x="252.21786" xlink:href="#mffa81e5b03" y="185.405326"/>
     <use style="fill:#1f77b4;stroke:#1f77b4;" x="255.530162" xlink:href="#mffa81e5b03" y="107.582068"/>
     <use style="fill:#1f77b4;stroke:#1f77b4;" x="258.842464" xlink:href="#mffa81e5b03" y="180.302162"/>
     <use style="fill:#1f77b4;stroke:#1f77b4;" x="262.154766" xlink:href="#mffa81e5b03" y="211.984308"/>
     <use style="fill:#1f77b4;stroke:#1f77b4;" x="265.467068" xlink:href="#mffa81e5b03" y="89.933624"/>
     <use style="fill:#1f77b4;stroke:#1f77b4;" x="268.77937" xlink:href="#mffa81e5b03" y="38.476716"/>
     <use style="fill:#1f77b4;stroke:#1f77b4;" x="272.091673" xlink:href="#mffa81e5b03" y="45.280935"/>
     <use style="fill:#1f77b4;stroke:#1f77b4;" x="275.403975" xlink:href="#mffa81e5b03" y="132.247363"/>
     <use style="fill:#1f77b4;stroke:#1f77b4;" x="278.716277" xlink:href="#mffa81e5b03" y="120.977875"/>
     <use style="fill:#1f77b4;stroke:#1f77b4;" x="282.028579" xlink:href="#mffa81e5b03" y="49.32094"/>
     <use style="fill:#1f77b4;stroke:#1f77b4;" x="285.340881" xlink:href="#mffa81e5b03" y="95.462052"/>
     <use style="fill:#1f77b4;stroke:#1f77b4;" x="288.653183" xlink:href="#mffa81e5b03" y="209.645357"/>
     <use style="fill:#1f77b4;stroke:#1f77b4;" x="291.965485" xlink:href="#mffa81e5b03" y="217.512736"/>
     <use style="fill:#1f77b4;stroke:#1f77b4;" x="295.277788" xlink:href="#mffa81e5b03" y="38.264084"/>
     <use style="fill:#1f77b4;stroke:#1f77b4;" x="298.59009" xlink:href="#mffa81e5b03" y="65.268329"/>
     <use style="fill:#1f77b4;stroke:#1f77b4;" x="301.902392" xlink:href="#mffa81e5b03" y="223.891692"/>
     <use style="fill:#1f77b4;stroke:#1f77b4;" x="305.214694" xlink:href="#mffa81e5b03" y="177.963211"/>
     <use style="fill:#1f77b4;stroke:#1f77b4;" x="308.526996" xlink:href="#mffa81e5b03" y="51.659891"/>
     <use style="fill:#1f77b4;stroke:#1f77b4;" x="311.839298" xlink:href="#mffa81e5b03" y="179.239002"/>
     <use style="fill:#1f77b4;stroke:#1f77b4;" x="315.1516" xlink:href="#mffa81e5b03" y="207.519039"/>
     <use style="fill:#1f77b4;stroke:#1f77b4;" x="318.463903" xlink:href="#mffa81e5b03" y="91.209415"/>
     <use style="fill:#1f77b4;stroke:#1f77b4;" x="321.776205" xlink:href="#mffa81e5b03" y="171.371624"/>
     <use style="fill:#1f77b4;stroke:#1f77b4;" x="325.088507" xlink:href="#mffa81e5b03" y="198.375869"/>
     <use style="fill:#1f77b4;stroke:#1f77b4;" x="328.400809" xlink:href="#mffa81e5b03" y="150.533702"/>
     <use style="fill:#1f77b4;stroke:#1f77b4;" x="331.713111" xlink:href="#mffa81e5b03" y="236.224339"/>
     <use style="fill:#1f77b4;stroke:#1f77b4;" x="335.025413" xlink:href="#mffa81e5b03" y="37.413556"/>
     <use style="fill:#1f77b4;stroke:#1f77b4;" x="338.337715" xlink:href="#mffa81e5b03" y="173.497942"/>
     <use style="fill:#1f77b4;stroke:#1f77b4;" x="341.650018" xlink:href="#mffa81e5b03" y="108.219964"/>
     <use style="fill:#1f77b4;stroke:#1f77b4;" x="344.96232" xlink:href="#mffa81e5b03" y="78.238872"/>
     <use style="fill:#1f77b4;stroke:#1f77b4;" x="348.274622" xlink:href="#mffa81e5b03" y="122.041034"/>
     <use style="fill:#1f77b4;stroke:#1f77b4;" x="351.586924" xlink:href="#mffa81e5b03" y="194.97376"/>
     <use style="fill:#1f77b4;stroke:#1f77b4;" x="354.899226" xlink:href="#mffa81e5b03" y="188.807436"/>
     <use style="fill:#1f77b4;stroke:#1f77b4;" x="358.211528" xlink:href="#mffa81e5b03" y="45.068303"/>
     <use style="fill:#1f77b4;stroke:#1f77b4;" x="361.52383" xlink:href="#mffa81e5b03" y="114.173655"/>
     <use style="fill:#1f77b4;stroke:#1f77b4;" x="364.836133" xlink:href="#mffa81e5b03" y="104.605222"/>
     <use style="fill:#1f77b4;stroke:#1f77b4;" x="368.148435" xlink:href="#mffa81e5b03" y="67.60728"/>
     <use style="fill:#1f77b4;stroke:#1f77b4;" x="371.460737" xlink:href="#mffa81e5b03" y="145.855802"/>
     <use style="fill:#1f77b4;stroke:#1f77b4;" x="374.773039" xlink:href="#mffa81e5b03" y="182.641112"/>
     <use style="fill:#1f77b4;stroke:#1f77b4;" x="378.085341" xlink:href="#mffa81e5b03" y="213.897994"/>
     <use style="fill:#1f77b4;stroke:#1f77b4;" x="381.397643" xlink:href="#mffa81e5b03" y="87.594674"/>
     <use style="fill:#1f77b4;stroke:#1f77b4;" x="384.709946" xlink:href="#mffa81e5b03" y="71.222021"/>
     <use style="fill:#1f77b4;stroke:#1f77b4;" x="388.022248" xlink:href="#mffa81e5b03" y="117.788397"/>
     <use style="fill:#1f77b4;stroke:#1f77b4;" x="391.33455" xlink:href="#mffa81e5b03" y="205.817984"/>
     <use style="fill:#1f77b4;stroke:#1f77b4;" x="394.646852" xlink:href="#mffa81e5b03" y="220.27695"/>
     <use style="fill:#1f77b4;stroke:#1f77b4;" x="397.959154" xlink:href="#mffa81e5b03" y="116.93787"/>
     <use style="fill:#1f77b4;stroke:#1f77b4;" x="401.271456" xlink:href="#mffa81e5b03" y="133.09789"/>
    </g>
   </g>
   <g id="matplotlib.axis_1">
    <g id="xtick_1">
     <g id="line2d_1">
      <defs>
       <path d="M 0 0 
L 0 3.5 
" id="m648a6fde4f" style="stroke:#000000;stroke-width:0.8;"/>
      </defs>
      <g>
       <use style="stroke:#000000;stroke-width:0.8;" x="73.353544" xlink:href="#m648a6fde4f" y="246.2"/>
      </g>
     </g>
     <g id="text_1">
      <!-- 0 -->
      <defs>
       <path d="M 31.78125 66.40625 
Q 24.171875 66.40625 20.328125 58.90625 
Q 16.5 51.421875 16.5 36.375 
Q 16.5 21.390625 20.328125 13.890625 
Q 24.171875 6.390625 31.78125 6.390625 
Q 39.453125 6.390625 43.28125 13.890625 
Q 47.125 21.390625 47.125 36.375 
Q 47.125 51.421875 43.28125 58.90625 
Q 39.453125 66.40625 31.78125 66.40625 
z
M 31.78125 74.21875 
Q 44.046875 74.21875 50.515625 64.515625 
Q 56.984375 54.828125 56.984375 36.375 
Q 56.984375 17.96875 50.515625 8.265625 
Q 44.046875 -1.421875 31.78125 -1.421875 
Q 19.53125 -1.421875 13.0625 8.265625 
Q 6.59375 17.96875 6.59375 36.375 
Q 6.59375 54.828125 13.0625 64.515625 
Q 19.53125 74.21875 31.78125 74.21875 
z
" id="DejaVuSans-30"/>
      </defs>
      <g transform="translate(70.172294 260.798437)scale(0.1 -0.1)">
       <use xlink:href="#DejaVuSans-30"/>
      </g>
     </g>
    </g>
    <g id="xtick_2">
     <g id="line2d_2">
      <g>
       <use style="stroke:#000000;stroke-width:0.8;" x="139.599587" xlink:href="#m648a6fde4f" y="246.2"/>
      </g>
     </g>
     <g id="text_2">
      <!-- 20 -->
      <defs>
       <path d="M 19.1875 8.296875 
L 53.609375 8.296875 
L 53.609375 0 
L 7.328125 0 
L 7.328125 8.296875 
Q 12.9375 14.109375 22.625 23.890625 
Q 32.328125 33.6875 34.8125 36.53125 
Q 39.546875 41.84375 41.421875 45.53125 
Q 43.3125 49.21875 43.3125 52.78125 
Q 43.3125 58.59375 39.234375 62.25 
Q 35.15625 65.921875 28.609375 65.921875 
Q 23.96875 65.921875 18.8125 64.3125 
Q 13.671875 62.703125 7.8125 59.421875 
L 7.8125 69.390625 
Q 13.765625 71.78125 18.9375 73 
Q 24.125 74.21875 28.421875 74.21875 
Q 39.75 74.21875 46.484375 68.546875 
Q 53.21875 62.890625 53.21875 53.421875 
Q 53.21875 48.921875 51.53125 44.890625 
Q 49.859375 40.875 45.40625 35.40625 
Q 44.1875 33.984375 37.640625 27.21875 
Q 31.109375 20.453125 19.1875 8.296875 
z
" id="DejaVuSans-32"/>
      </defs>
      <g transform="translate(133.237087 260.798437)scale(0.1 -0.1)">
       <use xlink:href="#DejaVuSans-32"/>
       <use x="63.623047" xlink:href="#DejaVuSans-30"/>
      </g>
     </g>
    </g>
    <g id="xtick_3">
     <g id="line2d_3">
      <g>
       <use style="stroke:#000000;stroke-width:0.8;" x="205.84563" xlink:href="#m648a6fde4f" y="246.2"/>
      </g>
     </g>
     <g id="text_3">
      <!-- 40 -->
      <defs>
       <path d="M 37.796875 64.3125 
L 12.890625 25.390625 
L 37.796875 25.390625 
z
M 35.203125 72.90625 
L 47.609375 72.90625 
L 47.609375 25.390625 
L 58.015625 25.390625 
L 58.015625 17.1875 
L 47.609375 17.1875 
L 47.609375 0 
L 37.796875 0 
L 37.796875 17.1875 
L 4.890625 17.1875 
L 4.890625 26.703125 
z
" id="DejaVuSans-34"/>
      </defs>
      <g transform="translate(199.48313 260.798437)scale(0.1 -0.1)">
       <use xlink:href="#DejaVuSans-34"/>
       <use x="63.623047" xlink:href="#DejaVuSans-30"/>
      </g>
     </g>
    </g>
    <g id="xtick_4">
     <g id="line2d_4">
      <g>
       <use style="stroke:#000000;stroke-width:0.8;" x="272.091673" xlink:href="#m648a6fde4f" y="246.2"/>
      </g>
     </g>
     <g id="text_4">
      <!-- 60 -->
      <defs>
       <path d="M 33.015625 40.375 
Q 26.375 40.375 22.484375 35.828125 
Q 18.609375 31.296875 18.609375 23.390625 
Q 18.609375 15.53125 22.484375 10.953125 
Q 26.375 6.390625 33.015625 6.390625 
Q 39.65625 6.390625 43.53125 10.953125 
Q 47.40625 15.53125 47.40625 23.390625 
Q 47.40625 31.296875 43.53125 35.828125 
Q 39.65625 40.375 33.015625 40.375 
z
M 52.59375 71.296875 
L 52.59375 62.3125 
Q 48.875 64.0625 45.09375 64.984375 
Q 41.3125 65.921875 37.59375 65.921875 
Q 27.828125 65.921875 22.671875 59.328125 
Q 17.53125 52.734375 16.796875 39.40625 
Q 19.671875 43.65625 24.015625 45.921875 
Q 28.375 48.1875 33.59375 48.1875 
Q 44.578125 48.1875 50.953125 41.515625 
Q 57.328125 34.859375 57.328125 23.390625 
Q 57.328125 12.15625 50.6875 5.359375 
Q 44.046875 -1.421875 33.015625 -1.421875 
Q 20.359375 -1.421875 13.671875 8.265625 
Q 6.984375 17.96875 6.984375 36.375 
Q 6.984375 53.65625 15.1875 63.9375 
Q 23.390625 74.21875 37.203125 74.21875 
Q 40.921875 74.21875 44.703125 73.484375 
Q 48.484375 72.75 52.59375 71.296875 
z
" id="DejaVuSans-36"/>
      </defs>
      <g transform="translate(265.729173 260.798437)scale(0.1 -0.1)">
       <use xlink:href="#DejaVuSans-36"/>
       <use x="63.623047" xlink:href="#DejaVuSans-30"/>
      </g>
     </g>
    </g>
    <g id="xtick_5">
     <g id="line2d_5">
      <g>
       <use style="stroke:#000000;stroke-width:0.8;" x="338.337715" xlink:href="#m648a6fde4f" y="246.2"/>
      </g>
     </g>
     <g id="text_5">
      <!-- 80 -->
      <defs>
       <path d="M 31.78125 34.625 
Q 24.75 34.625 20.71875 30.859375 
Q 16.703125 27.09375 16.703125 20.515625 
Q 16.703125 13.921875 20.71875 10.15625 
Q 24.75 6.390625 31.78125 6.390625 
Q 38.8125 6.390625 42.859375 10.171875 
Q 46.921875 13.96875 46.921875 20.515625 
Q 46.921875 27.09375 42.890625 30.859375 
Q 38.875 34.625 31.78125 34.625 
z
M 21.921875 38.8125 
Q 15.578125 40.375 12.03125 44.71875 
Q 8.5 49.078125 8.5 55.328125 
Q 8.5 64.0625 14.71875 69.140625 
Q 20.953125 74.21875 31.78125 74.21875 
Q 42.671875 74.21875 48.875 69.140625 
Q 55.078125 64.0625 55.078125 55.328125 
Q 55.078125 49.078125 51.53125 44.71875 
Q 48 40.375 41.703125 38.8125 
Q 48.828125 37.15625 52.796875 32.3125 
Q 56.78125 27.484375 56.78125 20.515625 
Q 56.78125 9.90625 50.3125 4.234375 
Q 43.84375 -1.421875 31.78125 -1.421875 
Q 19.734375 -1.421875 13.25 4.234375 
Q 6.78125 9.90625 6.78125 20.515625 
Q 6.78125 27.484375 10.78125 32.3125 
Q 14.796875 37.15625 21.921875 38.8125 
z
M 18.3125 54.390625 
Q 18.3125 48.734375 21.84375 45.5625 
Q 25.390625 42.390625 31.78125 42.390625 
Q 38.140625 42.390625 41.71875 45.5625 
Q 45.3125 48.734375 45.3125 54.390625 
Q 45.3125 60.0625 41.71875 63.234375 
Q 38.140625 66.40625 31.78125 66.40625 
Q 25.390625 66.40625 21.84375 63.234375 
Q 18.3125 60.0625 18.3125 54.390625 
z
" id="DejaVuSans-38"/>
      </defs>
      <g transform="translate(331.975215 260.798437)scale(0.1 -0.1)">
       <use xlink:href="#DejaVuSans-38"/>
       <use x="63.623047" xlink:href="#DejaVuSans-30"/>
      </g>
     </g>
    </g>
    <g id="xtick_6">
     <g id="line2d_6">
      <g>
       <use style="stroke:#000000;stroke-width:0.8;" x="404.583758" xlink:href="#m648a6fde4f" y="246.2"/>
      </g>
     </g>
     <g id="text_6">
      <!-- 100 -->
      <defs>
       <path d="M 12.40625 8.296875 
L 28.515625 8.296875 
L 28.515625 63.921875 
L 10.984375 60.40625 
L 10.984375 69.390625 
L 28.421875 72.90625 
L 38.28125 72.90625 
L 38.28125 8.296875 
L 54.390625 8.296875 
L 54.390625 0 
L 12.40625 0 
z
" id="DejaVuSans-31"/>
      </defs>
      <g transform="translate(395.040008 260.798437)scale(0.1 -0.1)">
       <use xlink:href="#DejaVuSans-31"/>
       <use x="63.623047" xlink:href="#DejaVuSans-30"/>
       <use x="127.246094" xlink:href="#DejaVuSans-30"/>
      </g>
     </g>
    </g>
    <g id="text_7">
     <!-- Sample no -->
     <defs>
      <path d="M 53.515625 70.515625 
L 53.515625 60.890625 
Q 47.90625 63.578125 42.921875 64.890625 
Q 37.9375 66.21875 33.296875 66.21875 
Q 25.25 66.21875 20.875 63.09375 
Q 16.5 59.96875 16.5 54.203125 
Q 16.5 49.359375 19.40625 46.890625 
Q 22.3125 44.4375 30.421875 42.921875 
L 36.375 41.703125 
Q 47.40625 39.59375 52.65625 34.296875 
Q 57.90625 29 57.90625 20.125 
Q 57.90625 9.515625 50.796875 4.046875 
Q 43.703125 -1.421875 29.984375 -1.421875 
Q 24.8125 -1.421875 18.96875 -0.25 
Q 13.140625 0.921875 6.890625 3.21875 
L 6.890625 13.375 
Q 12.890625 10.015625 18.65625 8.296875 
Q 24.421875 6.59375 29.984375 6.59375 
Q 38.421875 6.59375 43.015625 9.90625 
Q 47.609375 13.234375 47.609375 19.390625 
Q 47.609375 24.75 44.3125 27.78125 
Q 41.015625 30.8125 33.5 32.328125 
L 27.484375 33.5 
Q 16.453125 35.6875 11.515625 40.375 
Q 6.59375 45.0625 6.59375 53.421875 
Q 6.59375 63.09375 13.40625 68.65625 
Q 20.21875 74.21875 32.171875 74.21875 
Q 37.3125 74.21875 42.625 73.28125 
Q 47.953125 72.359375 53.515625 70.515625 
z
" id="DejaVuSans-53"/>
      <path d="M 34.28125 27.484375 
Q 23.390625 27.484375 19.1875 25 
Q 14.984375 22.515625 14.984375 16.5 
Q 14.984375 11.71875 18.140625 8.90625 
Q 21.296875 6.109375 26.703125 6.109375 
Q 34.1875 6.109375 38.703125 11.40625 
Q 43.21875 16.703125 43.21875 25.484375 
L 43.21875 27.484375 
z
M 52.203125 31.203125 
L 52.203125 0 
L 43.21875 0 
L 43.21875 8.296875 
Q 40.140625 3.328125 35.546875 0.953125 
Q 30.953125 -1.421875 24.3125 -1.421875 
Q 15.921875 -1.421875 10.953125 3.296875 
Q 6 8.015625 6 15.921875 
Q 6 25.140625 12.171875 29.828125 
Q 18.359375 34.515625 30.609375 34.515625 
L 43.21875 34.515625 
L 43.21875 35.40625 
Q 43.21875 41.609375 39.140625 45 
Q 35.0625 48.390625 27.6875 48.390625 
Q 23 48.390625 18.546875 47.265625 
Q 14.109375 46.140625 10.015625 43.890625 
L 10.015625 52.203125 
Q 14.9375 54.109375 19.578125 55.046875 
Q 24.21875 56 28.609375 56 
Q 40.484375 56 46.34375 49.84375 
Q 52.203125 43.703125 52.203125 31.203125 
z
" id="DejaVuSans-61"/>
      <path d="M 52 44.1875 
Q 55.375 50.25 60.0625 53.125 
Q 64.75 56 71.09375 56 
Q 79.640625 56 84.28125 50.015625 
Q 88.921875 44.046875 88.921875 33.015625 
L 88.921875 0 
L 79.890625 0 
L 79.890625 32.71875 
Q 79.890625 40.578125 77.09375 44.375 
Q 74.3125 48.1875 68.609375 48.1875 
Q 61.625 48.1875 57.5625 43.546875 
Q 53.515625 38.921875 53.515625 30.90625 
L 53.515625 0 
L 44.484375 0 
L 44.484375 32.71875 
Q 44.484375 40.625 41.703125 44.40625 
Q 38.921875 48.1875 33.109375 48.1875 
Q 26.21875 48.1875 22.15625 43.53125 
Q 18.109375 38.875 18.109375 30.90625 
L 18.109375 0 
L 9.078125 0 
L 9.078125 54.6875 
L 18.109375 54.6875 
L 18.109375 46.1875 
Q 21.1875 51.21875 25.484375 53.609375 
Q 29.78125 56 35.6875 56 
Q 41.65625 56 45.828125 52.96875 
Q 50 49.953125 52 44.1875 
z
" id="DejaVuSans-6d"/>
      <path d="M 18.109375 8.203125 
L 18.109375 -20.796875 
L 9.078125 -20.796875 
L 9.078125 54.6875 
L 18.109375 54.6875 
L 18.109375 46.390625 
Q 20.953125 51.265625 25.265625 53.625 
Q 29.59375 56 35.59375 56 
Q 45.5625 56 51.78125 48.09375 
Q 58.015625 40.1875 58.015625 27.296875 
Q 58.015625 14.40625 51.78125 6.484375 
Q 45.5625 -1.421875 35.59375 -1.421875 
Q 29.59375 -1.421875 25.265625 0.953125 
Q 20.953125 3.328125 18.109375 8.203125 
z
M 48.6875 27.296875 
Q 48.6875 37.203125 44.609375 42.84375 
Q 40.53125 48.484375 33.40625 48.484375 
Q 26.265625 48.484375 22.1875 42.84375 
Q 18.109375 37.203125 18.109375 27.296875 
Q 18.109375 17.390625 22.1875 11.75 
Q 26.265625 6.109375 33.40625 6.109375 
Q 40.53125 6.109375 44.609375 11.75 
Q 48.6875 17.390625 48.6875 27.296875 
z
" id="DejaVuSans-70"/>
      <path d="M 9.421875 75.984375 
L 18.40625 75.984375 
L 18.40625 0 
L 9.421875 0 
z
" id="DejaVuSans-6c"/>
      <path d="M 56.203125 29.59375 
L 56.203125 25.203125 
L 14.890625 25.203125 
Q 15.484375 15.921875 20.484375 11.0625 
Q 25.484375 6.203125 34.421875 6.203125 
Q 39.59375 6.203125 44.453125 7.46875 
Q 49.3125 8.734375 54.109375 11.28125 
L 54.109375 2.78125 
Q 49.265625 0.734375 44.1875 -0.34375 
Q 39.109375 -1.421875 33.890625 -1.421875 
Q 20.796875 -1.421875 13.15625 6.1875 
Q 5.515625 13.8125 5.515625 26.8125 
Q 5.515625 40.234375 12.765625 48.109375 
Q 20.015625 56 32.328125 56 
Q 43.359375 56 49.78125 48.890625 
Q 56.203125 41.796875 56.203125 29.59375 
z
M 47.21875 32.234375 
Q 47.125 39.59375 43.09375 43.984375 
Q 39.0625 48.390625 32.421875 48.390625 
Q 24.90625 48.390625 20.390625 44.140625 
Q 15.875 39.890625 15.1875 32.171875 
z
" id="DejaVuSans-65"/>
      <path id="DejaVuSans-20"/>
      <path d="M 54.890625 33.015625 
L 54.890625 0 
L 45.90625 0 
L 45.90625 32.71875 
Q 45.90625 40.484375 42.875 44.328125 
Q 39.84375 48.1875 33.796875 48.1875 
Q 26.515625 48.1875 22.3125 43.546875 
Q 18.109375 38.921875 18.109375 30.90625 
L 18.109375 0 
L 9.078125 0 
L 9.078125 54.6875 
L 18.109375 54.6875 
L 18.109375 46.1875 
Q 21.34375 51.125 25.703125 53.5625 
Q 30.078125 56 35.796875 56 
Q 45.21875 56 50.046875 50.171875 
Q 54.890625 44.34375 54.890625 33.015625 
z
" id="DejaVuSans-6e"/>
      <path d="M 30.609375 48.390625 
Q 23.390625 48.390625 19.1875 42.75 
Q 14.984375 37.109375 14.984375 27.296875 
Q 14.984375 17.484375 19.15625 11.84375 
Q 23.34375 6.203125 30.609375 6.203125 
Q 37.796875 6.203125 41.984375 11.859375 
Q 46.1875 17.53125 46.1875 27.296875 
Q 46.1875 37.015625 41.984375 42.703125 
Q 37.796875 48.390625 30.609375 48.390625 
z
M 30.609375 56 
Q 42.328125 56 49.015625 48.375 
Q 55.71875 40.765625 55.71875 27.296875 
Q 55.71875 13.875 49.015625 6.21875 
Q 42.328125 -1.421875 30.609375 -1.421875 
Q 18.84375 -1.421875 12.171875 6.21875 
Q 5.515625 13.875 5.515625 27.296875 
Q 5.515625 40.765625 12.171875 48.375 
Q 18.84375 56 30.609375 56 
z
" id="DejaVuSans-6f"/>
     </defs>
     <g transform="translate(210.746875 274.476562)scale(0.1 -0.1)">
      <use xlink:href="#DejaVuSans-53"/>
      <use x="63.476562" xlink:href="#DejaVuSans-61"/>
      <use x="124.755859" xlink:href="#DejaVuSans-6d"/>
      <use x="222.167969" xlink:href="#DejaVuSans-70"/>
      <use x="285.644531" xlink:href="#DejaVuSans-6c"/>
      <use x="313.427734" xlink:href="#DejaVuSans-65"/>
      <use x="374.951172" xlink:href="#DejaVuSans-20"/>
      <use x="406.738281" xlink:href="#DejaVuSans-6e"/>
      <use x="470.117188" xlink:href="#DejaVuSans-6f"/>
     </g>
    </g>
   </g>
   <g id="matplotlib.axis_2">
    <g id="ytick_1">
     <g id="line2d_7">
      <defs>
       <path d="M 0 0 
L -3.5 0 
" id="m3ed68e3e0d" style="stroke:#000000;stroke-width:0.8;"/>
      </defs>
      <g>
       <use style="stroke:#000000;stroke-width:0.8;" x="56.925" xlink:href="#m3ed68e3e0d" y="205.605352"/>
      </g>
     </g>
     <g id="text_8">
      <!-- 200 -->
      <g transform="translate(30.8375 209.404571)scale(0.1 -0.1)">
       <use xlink:href="#DejaVuSans-32"/>
       <use x="63.623047" xlink:href="#DejaVuSans-30"/>
       <use x="127.246094" xlink:href="#DejaVuSans-30"/>
      </g>
     </g>
    </g>
    <g id="ytick_2">
     <g id="line2d_8">
      <g>
       <use style="stroke:#000000;stroke-width:0.8;" x="56.925" xlink:href="#m3ed68e3e0d" y="163.078982"/>
      </g>
     </g>
     <g id="text_9">
      <!-- 400 -->
      <g transform="translate(30.8375 166.8782)scale(0.1 -0.1)">
       <use xlink:href="#DejaVuSans-34"/>
       <use x="63.623047" xlink:href="#DejaVuSans-30"/>
       <use x="127.246094" xlink:href="#DejaVuSans-30"/>
      </g>
     </g>
    </g>
    <g id="ytick_3">
     <g id="line2d_9">
      <g>
       <use style="stroke:#000000;stroke-width:0.8;" x="56.925" xlink:href="#m3ed68e3e0d" y="120.552611"/>
      </g>
     </g>
     <g id="text_10">
      <!-- 600 -->
      <g transform="translate(30.8375 124.35183)scale(0.1 -0.1)">
       <use xlink:href="#DejaVuSans-36"/>
       <use x="63.623047" xlink:href="#DejaVuSans-30"/>
       <use x="127.246094" xlink:href="#DejaVuSans-30"/>
      </g>
     </g>
    </g>
    <g id="ytick_4">
     <g id="line2d_10">
      <g>
       <use style="stroke:#000000;stroke-width:0.8;" x="56.925" xlink:href="#m3ed68e3e0d" y="78.02624"/>
      </g>
     </g>
     <g id="text_11">
      <!-- 800 -->
      <g transform="translate(30.8375 81.825459)scale(0.1 -0.1)">
       <use xlink:href="#DejaVuSans-38"/>
       <use x="63.623047" xlink:href="#DejaVuSans-30"/>
       <use x="127.246094" xlink:href="#DejaVuSans-30"/>
      </g>
     </g>
    </g>
    <g id="ytick_5">
     <g id="line2d_11">
      <g>
       <use style="stroke:#000000;stroke-width:0.8;" x="56.925" xlink:href="#m3ed68e3e0d" y="35.49987"/>
      </g>
     </g>
     <g id="text_12">
      <!-- 1000 -->
      <g transform="translate(24.475 39.299089)scale(0.1 -0.1)">
       <use xlink:href="#DejaVuSans-31"/>
       <use x="63.623047" xlink:href="#DejaVuSans-30"/>
       <use x="127.246094" xlink:href="#DejaVuSans-30"/>
       <use x="190.869141" xlink:href="#DejaVuSans-30"/>
      </g>
     </g>
    </g>
    <g id="text_13">
     <!-- Value -->
     <defs>
      <path d="M 28.609375 0 
L 0.78125 72.90625 
L 11.078125 72.90625 
L 34.1875 11.53125 
L 57.328125 72.90625 
L 67.578125 72.90625 
L 39.796875 0 
z
" id="DejaVuSans-56"/>
      <path d="M 8.5 21.578125 
L 8.5 54.6875 
L 17.484375 54.6875 
L 17.484375 21.921875 
Q 17.484375 14.15625 20.5 10.265625 
Q 23.53125 6.390625 29.59375 6.390625 
Q 36.859375 6.390625 41.078125 11.03125 
Q 45.3125 15.671875 45.3125 23.6875 
L 45.3125 54.6875 
L 54.296875 54.6875 
L 54.296875 0 
L 45.3125 0 
L 45.3125 8.40625 
Q 42.046875 3.421875 37.71875 1 
Q 33.40625 -1.421875 27.6875 -1.421875 
Q 18.265625 -1.421875 13.375 4.4375 
Q 8.5 10.296875 8.5 21.578125 
z
M 31.109375 56 
z
" id="DejaVuSans-75"/>
     </defs>
     <g transform="translate(18.395313 150.613281)rotate(-90)scale(0.1 -0.1)">
      <use xlink:href="#DejaVuSans-56"/>
      <use x="68.298828" xlink:href="#DejaVuSans-61"/>
      <use x="129.578125" xlink:href="#DejaVuSans-6c"/>
      <use x="157.361328" xlink:href="#DejaVuSans-75"/>
      <use x="220.740234" xlink:href="#DejaVuSans-65"/>
     </g>
    </g>
   </g>
   <g id="line2d_12">
    <path clip-path="url(#p0c1456e6aa)" d="M 73.353544 113.966624 
L 76.665846 114.269006 
L 79.978148 114.571389 
L 83.29045 114.873771 
L 86.602752 115.176154 
L 89.915054 115.478536 
L 93.227357 115.780919 
L 96.539659 116.083301 
L 99.851961 116.385684 
L 103.164263 116.688066 
L 106.476565 116.990449 
L 109.788867 117.292831 
L 113.10117 117.595214 
L 116.413472 117.897596 
L 119.725774 118.199979 
L 123.038076 118.502361 
L 126.350378 118.804744 
L 129.66268 119.107127 
L 132.974982 119.409509 
L 136.287285 119.711892 
L 139.599587 120.014274 
L 142.911889 120.316657 
L 146.224191 120.619039 
L 149.536493 120.921422 
L 152.848795 121.223804 
L 156.161097 121.526187 
L 159.4734 121.828569 
L 162.785702 122.130952 
L 166.098004 122.433334 
L 169.410306 122.735717 
L 172.722608 123.038099 
L 176.03491 123.340482 
L 179.347212 123.642864 
L 182.659515 123.945247 
L 185.971817 124.24763 
L 189.284119 124.550012 
L 192.596421 124.852395 
L 195.908723 125.154777 
L 199.221025 125.45716 
L 202.533327 125.759542 
L 205.84563 126.061925 
L 209.157932 126.364307 
L 212.470234 126.66669 
L 215.782536 126.969072 
L 219.094838 127.271455 
L 222.40714 127.573837 
L 225.719442 127.87622 
L 229.031745 128.178602 
L 232.344047 128.480985 
L 235.656349 128.783367 
L 238.968651 129.08575 
L 242.280953 129.388132 
L 245.593255 129.690515 
L 248.905558 129.992898 
L 252.21786 130.29528 
L 255.530162 130.597663 
L 258.842464 130.900045 
L 262.154766 131.202428 
L 265.467068 131.50481 
L 268.77937 131.807193 
L 272.091673 132.109575 
L 275.403975 132.411958 
L 278.716277 132.71434 
L 282.028579 133.016723 
L 285.340881 133.319105 
L 288.653183 133.621488 
L 291.965485 133.92387 
L 295.277788 134.226253 
L 298.59009 134.528635 
L 301.902392 134.831018 
L 305.214694 135.1334 
L 308.526996 135.435783 
L 311.839298 135.738166 
L 315.1516 136.040548 
L 318.463903 136.342931 
L 321.776205 136.645313 
L 325.088507 136.947696 
L 328.400809 137.250078 
L 331.713111 137.552461 
L 335.025413 137.854843 
L 338.337715 138.157226 
L 341.650018 138.459608 
L 344.96232 138.761991 
L 348.274622 139.064373 
L 351.586924 139.366756 
L 354.899226 139.669138 
L 358.211528 139.971521 
L 361.52383 140.273903 
L 364.836133 140.576286 
L 368.148435 140.878668 
L 371.460737 141.181051 
L 374.773039 141.483434 
L 378.085341 141.785816 
L 381.397643 142.088199 
L 384.709946 142.390581 
L 388.022248 142.692964 
L 391.33455 142.995346 
L 394.646852 143.297729 
L 397.959154 143.600111 
L 401.271456 143.902494 
" style="fill:none;stroke:#1f77b4;stroke-linecap:square;stroke-width:1.5;"/>
   </g>
   <g id="patch_3">
    <path d="M 56.925 246.2 
L 56.925 26.8 
" style="fill:none;stroke:#000000;stroke-linecap:square;stroke-linejoin:miter;stroke-width:0.8;"/>
   </g>
   <g id="patch_4">
    <path d="M 417.7 246.2 
L 417.7 26.8 
" style="fill:none;stroke:#000000;stroke-linecap:square;stroke-linejoin:miter;stroke-width:0.8;"/>
   </g>
   <g id="patch_5">
    <path d="M 56.925 246.2 
L 417.7 246.2 
" style="fill:none;stroke:#000000;stroke-linecap:square;stroke-linejoin:miter;stroke-width:0.8;"/>
   </g>
   <g id="patch_6">
    <path d="M 56.925 26.8 
L 417.7 26.8 
" style="fill:none;stroke:#000000;stroke-linecap:square;stroke-linejoin:miter;stroke-width:0.8;"/>
   </g>
   <g id="text_14">
    <!-- 100 random samples from the RDD -->
    <defs>
     <path d="M 41.109375 46.296875 
Q 39.59375 47.171875 37.8125 47.578125 
Q 36.03125 48 33.890625 48 
Q 26.265625 48 22.1875 43.046875 
Q 18.109375 38.09375 18.109375 28.8125 
L 18.109375 0 
L 9.078125 0 
L 9.078125 54.6875 
L 18.109375 54.6875 
L 18.109375 46.1875 
Q 20.953125 51.171875 25.484375 53.578125 
Q 30.03125 56 36.53125 56 
Q 37.453125 56 38.578125 55.875 
Q 39.703125 55.765625 41.0625 55.515625 
z
" id="DejaVuSans-72"/>
     <path d="M 45.40625 46.390625 
L 45.40625 75.984375 
L 54.390625 75.984375 
L 54.390625 0 
L 45.40625 0 
L 45.40625 8.203125 
Q 42.578125 3.328125 38.25 0.953125 
Q 33.9375 -1.421875 27.875 -1.421875 
Q 17.96875 -1.421875 11.734375 6.484375 
Q 5.515625 14.40625 5.515625 27.296875 
Q 5.515625 40.1875 11.734375 48.09375 
Q 17.96875 56 27.875 56 
Q 33.9375 56 38.25 53.625 
Q 42.578125 51.265625 45.40625 46.390625 
z
M 14.796875 27.296875 
Q 14.796875 17.390625 18.875 11.75 
Q 22.953125 6.109375 30.078125 6.109375 
Q 37.203125 6.109375 41.296875 11.75 
Q 45.40625 17.390625 45.40625 27.296875 
Q 45.40625 37.203125 41.296875 42.84375 
Q 37.203125 48.484375 30.078125 48.484375 
Q 22.953125 48.484375 18.875 42.84375 
Q 14.796875 37.203125 14.796875 27.296875 
z
" id="DejaVuSans-64"/>
     <path d="M 44.28125 53.078125 
L 44.28125 44.578125 
Q 40.484375 46.53125 36.375 47.5 
Q 32.28125 48.484375 27.875 48.484375 
Q 21.1875 48.484375 17.84375 46.4375 
Q 14.5 44.390625 14.5 40.28125 
Q 14.5 37.15625 16.890625 35.375 
Q 19.28125 33.59375 26.515625 31.984375 
L 29.59375 31.296875 
Q 39.15625 29.25 43.1875 25.515625 
Q 47.21875 21.78125 47.21875 15.09375 
Q 47.21875 7.46875 41.1875 3.015625 
Q 35.15625 -1.421875 24.609375 -1.421875 
Q 20.21875 -1.421875 15.453125 -0.5625 
Q 10.6875 0.296875 5.421875 2 
L 5.421875 11.28125 
Q 10.40625 8.6875 15.234375 7.390625 
Q 20.0625 6.109375 24.8125 6.109375 
Q 31.15625 6.109375 34.5625 8.28125 
Q 37.984375 10.453125 37.984375 14.40625 
Q 37.984375 18.0625 35.515625 20.015625 
Q 33.0625 21.96875 24.703125 23.78125 
L 21.578125 24.515625 
Q 13.234375 26.265625 9.515625 29.90625 
Q 5.8125 33.546875 5.8125 39.890625 
Q 5.8125 47.609375 11.28125 51.796875 
Q 16.75 56 26.8125 56 
Q 31.78125 56 36.171875 55.265625 
Q 40.578125 54.546875 44.28125 53.078125 
z
" id="DejaVuSans-73"/>
     <path d="M 37.109375 75.984375 
L 37.109375 68.5 
L 28.515625 68.5 
Q 23.6875 68.5 21.796875 66.546875 
Q 19.921875 64.59375 19.921875 59.515625 
L 19.921875 54.6875 
L 34.71875 54.6875 
L 34.71875 47.703125 
L 19.921875 47.703125 
L 19.921875 0 
L 10.890625 0 
L 10.890625 47.703125 
L 2.296875 47.703125 
L 2.296875 54.6875 
L 10.890625 54.6875 
L 10.890625 58.5 
Q 10.890625 67.625 15.140625 71.796875 
Q 19.390625 75.984375 28.609375 75.984375 
z
" id="DejaVuSans-66"/>
     <path d="M 18.3125 70.21875 
L 18.3125 54.6875 
L 36.8125 54.6875 
L 36.8125 47.703125 
L 18.3125 47.703125 
L 18.3125 18.015625 
Q 18.3125 11.328125 20.140625 9.421875 
Q 21.96875 7.515625 27.59375 7.515625 
L 36.8125 7.515625 
L 36.8125 0 
L 27.59375 0 
Q 17.1875 0 13.234375 3.875 
Q 9.28125 7.765625 9.28125 18.015625 
L 9.28125 47.703125 
L 2.6875 47.703125 
L 2.6875 54.6875 
L 9.28125 54.6875 
L 9.28125 70.21875 
z
" id="DejaVuSans-74"/>
     <path d="M 54.890625 33.015625 
L 54.890625 0 
L 45.90625 0 
L 45.90625 32.71875 
Q 45.90625 40.484375 42.875 44.328125 
Q 39.84375 48.1875 33.796875 48.1875 
Q 26.515625 48.1875 22.3125 43.546875 
Q 18.109375 38.921875 18.109375 30.90625 
L 18.109375 0 
L 9.078125 0 
L 9.078125 75.984375 
L 18.109375 75.984375 
L 18.109375 46.1875 
Q 21.34375 51.125 25.703125 53.5625 
Q 30.078125 56 35.796875 56 
Q 45.21875 56 50.046875 50.171875 
Q 54.890625 44.34375 54.890625 33.015625 
z
" id="DejaVuSans-68"/>
     <path d="M 44.390625 34.1875 
Q 47.5625 33.109375 50.5625 29.59375 
Q 53.5625 26.078125 56.59375 19.921875 
L 66.609375 0 
L 56 0 
L 46.6875 18.703125 
Q 43.0625 26.03125 39.671875 28.421875 
Q 36.28125 30.8125 30.421875 30.8125 
L 19.671875 30.8125 
L 19.671875 0 
L 9.8125 0 
L 9.8125 72.90625 
L 32.078125 72.90625 
Q 44.578125 72.90625 50.734375 67.671875 
Q 56.890625 62.453125 56.890625 51.90625 
Q 56.890625 45.015625 53.6875 40.46875 
Q 50.484375 35.9375 44.390625 34.1875 
z
M 19.671875 64.796875 
L 19.671875 38.921875 
L 32.078125 38.921875 
Q 39.203125 38.921875 42.84375 42.21875 
Q 46.484375 45.515625 46.484375 51.90625 
Q 46.484375 58.296875 42.84375 61.546875 
Q 39.203125 64.796875 32.078125 64.796875 
z
" id="DejaVuSans-52"/>
     <path d="M 19.671875 64.796875 
L 19.671875 8.109375 
L 31.59375 8.109375 
Q 46.6875 8.109375 53.6875 14.9375 
Q 60.6875 21.78125 60.6875 36.53125 
Q 60.6875 51.171875 53.6875 57.984375 
Q 46.6875 64.796875 31.59375 64.796875 
z
M 9.8125 72.90625 
L 30.078125 72.90625 
Q 51.265625 72.90625 61.171875 64.09375 
Q 71.09375 55.28125 71.09375 36.53125 
Q 71.09375 17.671875 61.125 8.828125 
Q 51.171875 0 30.078125 0 
L 9.8125 0 
z
" id="DejaVuSans-44"/>
    </defs>
    <g transform="translate(130.766563 20.8)scale(0.12 -0.12)">
     <use xlink:href="#DejaVuSans-31"/>
     <use x="63.623047" xlink:href="#DejaVuSans-30"/>
     <use x="127.246094" xlink:href="#DejaVuSans-30"/>
     <use x="190.869141" xlink:href="#DejaVuSans-20"/>
     <use x="222.65625" xlink:href="#DejaVuSans-72"/>
     <use x="263.769531" xlink:href="#DejaVuSans-61"/>
     <use x="325.048828" xlink:href="#DejaVuSans-6e"/>
     <use x="388.427734" xlink:href="#DejaVuSans-64"/>
     <use x="451.904297" xlink:href="#DejaVuSans-6f"/>
     <use x="513.085938" xlink:href="#DejaVuSans-6d"/>
     <use x="610.498047" xlink:href="#DejaVuSans-20"/>
     <use x="642.285156" xlink:href="#DejaVuSans-73"/>
     <use x="694.384766" xlink:href="#DejaVuSans-61"/>
     <use x="755.664062" xlink:href="#DejaVuSans-6d"/>
     <use x="853.076172" xlink:href="#DejaVuSans-70"/>
     <use x="916.552734" xlink:href="#DejaVuSans-6c"/>
     <use x="944.335938" xlink:href="#DejaVuSans-65"/>
     <use x="1005.859375" xlink:href="#DejaVuSans-73"/>
     <use x="1057.958984" xlink:href="#DejaVuSans-20"/>
     <use x="1089.746094" xlink:href="#DejaVuSans-66"/>
     <use x="1124.951172" xlink:href="#DejaVuSans-72"/>
     <use x="1166.033203" xlink:href="#DejaVuSans-6f"/>
     <use x="1227.214844" xlink:href="#DejaVuSans-6d"/>
     <use x="1324.626953" xlink:href="#DejaVuSans-20"/>
     <use x="1356.414062" xlink:href="#DejaVuSans-74"/>
     <use x="1395.623047" xlink:href="#DejaVuSans-68"/>
     <use x="1459.001953" xlink:href="#DejaVuSans-65"/>
     <use x="1520.525391" xlink:href="#DejaVuSans-20"/>
     <use x="1552.3125" xlink:href="#DejaVuSans-52"/>
     <use x="1621.794922" xlink:href="#DejaVuSans-44"/>
     <use x="1698.796875" xlink:href="#DejaVuSans-44"/>
    </g>
   </g>
  </g>
  <g id="text_15">
   <!-- klasfeld -->
   <defs>
    <path d="M 9.078125 75.984375 
L 18.109375 75.984375 
L 18.109375 31.109375 
L 44.921875 54.6875 
L 56.390625 54.6875 
L 27.390625 29.109375 
L 57.625 0 
L 45.90625 0 
L 18.109375 26.703125 
L 18.109375 0 
L 9.078125 0 
z
" id="DejaVuSans-6b"/>
   </defs>
   <g transform="translate(391.13375 283.040313)scale(0.1 -0.1)">
    <use xlink:href="#DejaVuSans-6b"/>
    <use x="57.910156" xlink:href="#DejaVuSans-6c"/>
    <use x="85.693359" xlink:href="#DejaVuSans-61"/>
    <use x="146.972656" xlink:href="#DejaVuSans-73"/>
    <use x="199.072266" xlink:href="#DejaVuSans-66"/>
    <use x="234.277344" xlink:href="#DejaVuSans-65"/>
    <use x="295.800781" xlink:href="#DejaVuSans-6c"/>
    <use x="323.583984" xlink:href="#DejaVuSans-64"/>
   </g>
  </g>
 </g>
 <defs>
  <clipPath id="p0c1456e6aa">
   <rect height="219.4" width="360.775" x="56.925" y="26.8"/>
  </clipPath>
 </defs>
</svg>
